<svg xmlns="http://www.w3.org/2000/svg" viewBox="0 0 128 128" role="img" aria-labelledby="title desc">
  <title id="title">Black-footed ferret paw icon</title>
  <desc id="desc">A black-footed ferret paw mark on a green field.</desc>
  <defs>
    <linearGradient id="field" x1="18" y1="12" x2="110" y2="116" gradientUnits="userSpaceOnUse">
      <stop offset="0" stop-color="#2f705f"/>
      <stop offset="1" stop-color="#183f3a"/>
    </linearGradient>
    <linearGradient id="pad" x1="42" y1="36" x2="94" y2="102" gradientUnits="userSpaceOnUse">
      <stop offset="0" stop-color="#27221d"/>
      <stop offset="1" stop-color="#070605"/>
    </linearGradient>
    <filter id="shadow" x="-20%" y="-20%" width="140%" height="140%" color-interpolation-filters="sRGB">
      <feDropShadow dx="0" dy="4" stdDeviation="4" flood-color="#07110f" flood-opacity=".35"/>
    </filter>
  </defs>
  <rect width="128" height="128" rx="24" fill="url(#field)"/>
  <path d="M26 104c16-13 35-19 58-17 13 1 24 4 35 10-9 5-24 9-43 10-22 1-39 0-50-3Z" fill="#263c2d" opacity=".32"/>
  <g filter="url(#shadow)">
    <path d="M48 67c7-12 23-13 31-1 5 8 5 18-1 26-6 9-22 11-31 3-9-8-8-19 1-28Z" fill="#efe0bd"/>
    <path d="M43 69c8-14 26-16 36-2 7 10 6 22-2 31-8 10-27 12-38 2-10-10-9-21 4-31Z" fill="url(#pad)"/>
    <ellipse cx="37" cy="53" rx="12" ry="17" transform="rotate(-23 37 53)" fill="#efe0bd"/>
    <ellipse cx="37" cy="52" rx="9" ry="14" transform="rotate(-23 37 52)" fill="url(#pad)"/>
    <ellipse cx="55" cy="38" rx="11" ry="17" transform="rotate(-7 55 38)" fill="#efe0bd"/>
    <ellipse cx="55" cy="37" rx="8" ry="14" transform="rotate(-7 55 37)" fill="url(#pad)"/>
    <ellipse cx="77" cy="40" rx="11" ry="17" transform="rotate(12 77 40)" fill="#efe0bd"/>
    <ellipse cx="77" cy="39" rx="8" ry="14" transform="rotate(12 77 39)" fill="url(#pad)"/>
    <ellipse cx="93" cy="58" rx="12" ry="17" transform="rotate(26 93 58)" fill="#efe0bd"/>
    <ellipse cx="93" cy="57" rx="9" ry="14" transform="rotate(26 93 57)" fill="url(#pad)"/>
    <path d="M25 31c5 7 8 13 9 19-6-3-12-8-18-15 3-2 6-3 9-4Z" fill="#f0d79f"/>
    <path d="M50 15c4 8 6 15 5 22-5-5-9-12-12-21 2-1 5-1 7-1Z" fill="#f0d79f"/>
    <path d="M84 17c1 9 0 16-4 22-3-7-5-14-4-23 3 0 5 0 8 1Z" fill="#f0d79f"/>
    <path d="M112 38c-3 8-7 14-12 18 0-7 2-14 7-22 2 1 4 2 5 4Z" fill="#f0d79f"/>
  </g>
</svg>
